%TF.GenerationSoftware,KiCad,Pcbnew,10.0.3*%
%TF.CreationDate,2026-06-26T11:38:09-07:00*%
%TF.ProjectId,alti,616c7469-2e6b-4696-9361-645f70636258,rev?*%
%TF.SameCoordinates,Original*%
%TF.FileFunction,Copper,L1,Top*%
%TF.FilePolarity,Positive*%
%FSLAX46Y46*%
G04 Gerber Fmt 4.6, Leading zero omitted, Abs format (unit mm)*
G04 Created by KiCad (PCBNEW 10.0.3) date 2026-06-26 11:38:09*
%MOMM*%
%LPD*%
G01*
G04 APERTURE LIST*
G04 Aperture macros list*
%AMRoundRect*
0 Rectangle with rounded corners*
0 $1 Rounding radius*
0 $2 $3 $4 $5 $6 $7 $8 $9 X,Y pos of 4 corners*
0 Add a 4 corners polygon primitive as box body*
4,1,4,$2,$3,$4,$5,$6,$7,$8,$9,$2,$3,0*
0 Add four circle primitives for the rounded corners*
1,1,$1+$1,$2,$3*
1,1,$1+$1,$4,$5*
1,1,$1+$1,$6,$7*
1,1,$1+$1,$8,$9*
0 Add four rect primitives between the rounded corners*
20,1,$1+$1,$2,$3,$4,$5,0*
20,1,$1+$1,$4,$5,$6,$7,0*
20,1,$1+$1,$6,$7,$8,$9,0*
20,1,$1+$1,$8,$9,$2,$3,0*%
G04 Aperture macros list end*
%TA.AperFunction,SMDPad,CuDef*%
%ADD10RoundRect,0.072500X0.732500X0.217500X-0.732500X0.217500X-0.732500X-0.217500X0.732500X-0.217500X0*%
%TD*%
%TA.AperFunction,SMDPad,CuDef*%
%ADD11R,3.270000X1.070000*%
%TD*%
%TA.AperFunction,ComponentPad*%
%ADD12R,1.700000X1.700000*%
%TD*%
%TA.AperFunction,ComponentPad*%
%ADD13C,1.700000*%
%TD*%
%TA.AperFunction,SMDPad,CuDef*%
%ADD14R,0.304800X0.279400*%
%TD*%
%TA.AperFunction,SMDPad,CuDef*%
%ADD15R,0.279400X0.304800*%
%TD*%
%TA.AperFunction,SMDPad,CuDef*%
%ADD16R,1.500000X0.900000*%
%TD*%
%TA.AperFunction,SMDPad,CuDef*%
%ADD17R,0.900000X1.500000*%
%TD*%
%TA.AperFunction,SMDPad,CuDef*%
%ADD18R,0.900000X0.900000*%
%TD*%
%TA.AperFunction,SMDPad,CuDef*%
%ADD19RoundRect,0.027500X-0.082500X0.292500X-0.082500X-0.292500X0.082500X-0.292500X0.082500X0.292500X0*%
%TD*%
%TA.AperFunction,SMDPad,CuDef*%
%ADD20RoundRect,0.027500X-0.292500X0.082500X-0.292500X-0.082500X0.292500X-0.082500X0.292500X0.082500X0*%
%TD*%
%TA.AperFunction,SMDPad,CuDef*%
%ADD21R,1.700000X1.540000*%
%TD*%
%TA.AperFunction,SMDPad,CuDef*%
%ADD22R,0.400000X1.350000*%
%TD*%
%TA.AperFunction,SMDPad,CuDef*%
%ADD23R,1.600000X1.400000*%
%TD*%
%TA.AperFunction,SMDPad,CuDef*%
%ADD24R,1.900000X1.900000*%
%TD*%
%TA.AperFunction,ComponentPad*%
%ADD25O,0.900000X1.800000*%
%TD*%
%TA.AperFunction,SMDPad,CuDef*%
%ADD26R,0.599999X1.100000*%
%TD*%
%TA.AperFunction,SMDPad,CuDef*%
%ADD27R,2.899999X1.300000*%
%TD*%
%TA.AperFunction,ComponentPad*%
%ADD28C,0.499999*%
%TD*%
%TA.AperFunction,ViaPad*%
%ADD29C,0.600000*%
%TD*%
%TA.AperFunction,Conductor*%
%ADD30C,0.200000*%
%TD*%
%TA.AperFunction,Conductor*%
%ADD31C,0.100000*%
%TD*%
G04 APERTURE END LIST*
D10*
%TO.P,U6,1,/CS_1*%
%TO.N,CS*%
X106104994Y-55405005D03*
%TO.P,U6,2,DO(IO1)_2*%
%TO.N,MISO*%
X106104996Y-54134993D03*
%TO.P,U6,3,/WP(IO2)_3*%
%TO.N,Net-(U6-{slash}WP(IO2))*%
X106105002Y-52864998D03*
%TO.P,U6,4,GND_4*%
%TO.N,GND*%
X106104998Y-51594998D03*
%TO.P,U6,5,DI(IO0)_5*%
%TO.N,MOSI*%
X98895006Y-51594995D03*
%TO.P,U6,6,CLK_6*%
%TO.N,CLK*%
X98895004Y-52865007D03*
%TO.P,U6,7,/HOLD/RESET(IO3)_7*%
%TO.N,Net-(U6-{slash}HOLD{slash}RESET(IO3))*%
X98894998Y-54135002D03*
%TO.P,U6,8,VCC_8*%
%TO.N,3V3*%
X98895002Y-55405002D03*
%TD*%
D11*
%TO.P,R6,1*%
%TO.N,Net-(U6-{slash}HOLD{slash}RESET(IO3))*%
X93500010Y-57945004D03*
%TO.P,R6,2*%
%TO.N,3V3*%
X93499990Y-64054996D03*
%TD*%
D12*
%TO.P,S1,1*%
%TO.N,IO1*%
X113000000Y-48725000D03*
D13*
%TO.P,S1,2*%
%TO.N,GND*%
X113000000Y-51265000D03*
%TD*%
D14*
%TO.P,U3,1,VDDIO_1*%
%TO.N,3V3*%
X111238000Y-67250000D03*
%TO.P,U3,2,SCK_2*%
%TO.N,SCL*%
X111238000Y-67750000D03*
D15*
%TO.P,U3,3,VSS_3*%
%TO.N,GND*%
X111500001Y-68262000D03*
%TO.P,U3,4,SDI_4*%
%TO.N,SDA*%
X112000000Y-68262000D03*
%TO.P,U3,5,SDO_5*%
%TO.N,GND*%
X112499999Y-68262000D03*
D14*
%TO.P,U3,6,CSB_6*%
%TO.N,3V3*%
X112762000Y-67750000D03*
%TO.P,U3,7,INT_7*%
%TO.N,unconnected-(U3-INT-Pad7)*%
X112762000Y-67250000D03*
D15*
%TO.P,U3,8,VSS_8*%
%TO.N,GND*%
X112499999Y-66738000D03*
%TO.P,U3,9,VSS_9*%
X112000000Y-66738000D03*
%TO.P,U3,10,VDD_10*%
%TO.N,3V3*%
X111500001Y-66738000D03*
%TD*%
D16*
%TO.P,U1,1,GND_1*%
%TO.N,GND*%
X94250000Y-27740000D03*
%TO.P,U1,2,3V3_2*%
%TO.N,3V3*%
X94250000Y-29010000D03*
%TO.P,U1,3,EN_3*%
X94250000Y-30280000D03*
%TO.P,U1,4,IO4_4*%
%TO.N,INT*%
X94250000Y-31550000D03*
%TO.P,U1,5,IO5_5*%
%TO.N,unconnected-(U1-IO5-Pad5)*%
X94250000Y-32820000D03*
%TO.P,U1,6,IO6_6*%
%TO.N,unconnected-(U1-IO6-Pad6)*%
X94250000Y-34090000D03*
%TO.P,U1,7,IO7_7*%
%TO.N,unconnected-(U1-IO7-Pad7)*%
X94250000Y-35360000D03*
%TO.P,U1,8,IO15_8*%
%TO.N,unconnected-(U1-IO15-Pad8)*%
X94250000Y-36630000D03*
%TO.P,U1,9,IO16_9*%
%TO.N,unconnected-(U1-IO16-Pad9)*%
X94250000Y-37900000D03*
%TO.P,U1,10,IO17_10*%
%TO.N,unconnected-(U1-IO17-Pad10)*%
X94250000Y-39170000D03*
%TO.P,U1,11,IO18_11*%
%TO.N,unconnected-(U1-IO18-Pad11)*%
X94250000Y-40440000D03*
%TO.P,U1,12,IO8_12*%
%TO.N,SDA*%
X94250000Y-41710000D03*
%TO.P,U1,13,IO19_13*%
%TO.N,D-*%
X94250000Y-42980000D03*
%TO.P,U1,14,IO20_14*%
%TO.N,D+*%
X94250000Y-44250000D03*
D17*
%TO.P,U1,15,IO3_15*%
%TO.N,unconnected-(U1-IO3-Pad15)*%
X96015000Y-45500000D03*
%TO.P,U1,16,IO46_16*%
%TO.N,unconnected-(U1-IO46-Pad16)*%
X97285000Y-45500000D03*
%TO.P,U1,17,IO9_17*%
%TO.N,SCL*%
X98555000Y-45500000D03*
%TO.P,U1,18,IO10_18*%
%TO.N,CS*%
X99825000Y-45500000D03*
%TO.P,U1,19,IO11_19*%
%TO.N,MOSI*%
X101095000Y-45500000D03*
%TO.P,U1,20,IO12_20*%
%TO.N,CLK*%
X102365000Y-45500000D03*
%TO.P,U1,21,IO13_21*%
%TO.N,MISO*%
X103635000Y-45500000D03*
%TO.P,U1,22,IO14_22*%
%TO.N,unconnected-(U1-IO14-Pad22)*%
X104905000Y-45500000D03*
%TO.P,U1,23,IO21_23*%
%TO.N,unconnected-(U1-IO21-Pad23)*%
X106175000Y-45500000D03*
%TO.P,U1,24,IO47_24*%
%TO.N,unconnected-(U1-IO47-Pad24)*%
X107445000Y-45500000D03*
%TO.P,U1,25,IO48_25*%
%TO.N,unconnected-(U1-IO48-Pad25)*%
X108715000Y-45500000D03*
%TO.P,U1,26,IO45_26*%
%TO.N,unconnected-(U1-IO45-Pad26)*%
X109985000Y-45500000D03*
D16*
%TO.P,U1,27,IO0_27*%
%TO.N,unconnected-(U1-IO0-Pad27)*%
X111750000Y-44250000D03*
%TO.P,U1,28,IO35_28*%
%TO.N,unconnected-(U1-IO35-Pad28)*%
X111750000Y-42980000D03*
%TO.P,U1,29,IO36_29*%
%TO.N,unconnected-(U1-IO36-Pad29)*%
X111750000Y-41710000D03*
%TO.P,U1,30,IO37_30*%
%TO.N,unconnected-(U1-IO37-Pad30)*%
X111750000Y-40440000D03*
%TO.P,U1,31,IO38_31*%
%TO.N,unconnected-(U1-IO38-Pad31)*%
X111750000Y-39170000D03*
%TO.P,U1,32,IO39_32*%
%TO.N,unconnected-(U1-IO39-Pad32)*%
X111750000Y-37900000D03*
%TO.P,U1,33,IO40_33*%
%TO.N,unconnected-(U1-IO40-Pad33)*%
X111750000Y-36630000D03*
%TO.P,U1,34,IO41_34*%
%TO.N,unconnected-(U1-IO41-Pad34)*%
X111750000Y-35360000D03*
%TO.P,U1,35,IO42_35*%
%TO.N,unconnected-(U1-IO42-Pad35)*%
X111750000Y-34090000D03*
%TO.P,U1,36,RXD0_36*%
%TO.N,unconnected-(U1-RXD0-Pad36)*%
X111750000Y-32820000D03*
%TO.P,U1,37,TXD0_37*%
%TO.N,unconnected-(U1-TXD0-Pad37)*%
X111750000Y-31550000D03*
%TO.P,U1,38,IO2_38*%
%TO.N,IO2*%
X111750000Y-30280000D03*
%TO.P,U1,39,IO1_39*%
%TO.N,IO1*%
X111750000Y-29010000D03*
%TO.P,U1,40,GND_40*%
%TO.N,GND*%
X111750000Y-27740000D03*
D18*
%TO.P,U1,41_1,GND_41_1*%
X101500000Y-35460000D03*
%TO.P,U1,41_2,GND_41_2*%
X100100000Y-35460000D03*
%TO.P,U1,41_3,GND_41_3*%
X102900000Y-35460000D03*
%TO.P,U1,41_4,GND_41_4*%
X100100000Y-36860000D03*
%TO.P,U1,41_5,GND_41_5*%
X101500000Y-36860000D03*
%TO.P,U1,41_6,GND_41_6*%
X102900000Y-36860000D03*
%TO.P,U1,41_7,GND_41_7*%
X100100000Y-34060000D03*
%TO.P,U1,41_8,GND_41_8*%
X101500000Y-34060000D03*
%TO.P,U1,41_9,GND_41_9*%
X102900000Y-34060000D03*
%TD*%
D19*
%TO.P,U5,1*%
%TO.N,N/C*%
X108022372Y-60514253D03*
%TO.P,U5,2*%
X107622368Y-60514255D03*
%TO.P,U5,3*%
X107222371Y-60514254D03*
%TO.P,U5,4*%
X106822375Y-60514251D03*
%TO.P,U5,5*%
X106422372Y-60514249D03*
%TO.P,U5,6*%
X106022372Y-60514253D03*
D20*
%TO.P,U5,7,AUX_CL_7*%
%TO.N,unconnected-(U5-AUX_CL-Pad7)*%
X105477372Y-61059253D03*
%TO.P,U5,8,VDDIO_8*%
%TO.N,3V3*%
X105477374Y-61459257D03*
%TO.P,U5,9,AD0/SDO_9*%
%TO.N,unconnected-(U5-AD0{slash}SDO-Pad9)*%
X105477373Y-61859254D03*
%TO.P,U5,10,REGOUT_10*%
%TO.N,unconnected-(U5-REGOUT-Pad10)*%
X105477370Y-62259250D03*
%TO.P,U5,11,FSYNC_11*%
%TO.N,unconnected-(U5-FSYNC-Pad11)*%
X105477368Y-62659253D03*
%TO.P,U5,12,INT_12*%
%TO.N,INT*%
X105477372Y-63059253D03*
D19*
%TO.P,U5,13,VDD_13*%
%TO.N,3V3*%
X106022372Y-63604253D03*
%TO.P,U5,14*%
%TO.N,N/C*%
X106422376Y-63604251D03*
%TO.P,U5,15*%
X106822373Y-63604252D03*
%TO.P,U5,16*%
X107222369Y-63604255D03*
%TO.P,U5,17*%
X107622372Y-63604257D03*
%TO.P,U5,18,GND_18*%
%TO.N,GND*%
X108022372Y-63604253D03*
D20*
%TO.P,U5,19,RESV_1_19*%
%TO.N,unconnected-(U5-RESV_1-Pad19)*%
X108567372Y-63059253D03*
%TO.P,U5,20,RESV_2_20*%
%TO.N,unconnected-(U5-RESV_2-Pad20)*%
X108567370Y-62659249D03*
%TO.P,U5,21,AUX_DA_21*%
%TO.N,unconnected-(U5-AUX_DA-Pad21)*%
X108567371Y-62259252D03*
%TO.P,U5,22,NCS_22*%
%TO.N,unconnected-(U5-NCS-Pad22)*%
X108567374Y-61859256D03*
%TO.P,U5,23,SCL/SCLK_23*%
%TO.N,SCL*%
X108567376Y-61459253D03*
%TO.P,U5,24,SDA/SDI_24*%
%TO.N,SDA*%
X108567372Y-61059253D03*
D21*
%TO.P,U5,25,EXP_25*%
%TO.N,unconnected-(U5-EXP-Pad25)*%
X107022372Y-62059253D03*
%TD*%
D22*
%TO.P,J3,1,VUSB_1*%
%TO.N,VBUS*%
X101200000Y-96325000D03*
%TO.P,J3,2,D-_2*%
%TO.N,D-*%
X101850000Y-96325000D03*
%TO.P,J3,3,D+_3*%
%TO.N,D+*%
X102500000Y-96325000D03*
%TO.P,J3,4,ID_4*%
%TO.N,unconnected-(J3-ID-Pad4)*%
X103150000Y-96325000D03*
%TO.P,J3,5,GND_5*%
%TO.N,GND*%
X103800000Y-96325000D03*
D23*
%TO.P,J3,S1,SHIELD_S1*%
X99300000Y-96550000D03*
%TO.P,J3,S2,SHIELD__1_S2*%
X105700000Y-96550000D03*
D24*
%TO.P,J3,S3,SHIELD__2_S3*%
X103700000Y-99000000D03*
%TO.P,J3,S4,SHIELD__3_S4*%
X101300000Y-99000000D03*
D25*
%TO.P,J3,S5,SHIELD__4_S5*%
X99200000Y-99000000D03*
%TO.P,J3,S6,SHIELD__5_S6*%
X105800000Y-99000000D03*
%TD*%
D11*
%TO.P,R5,1*%
%TO.N,Net-(U6-{slash}WP(IO2))*%
X93500006Y-49944999D03*
%TO.P,R5,2*%
%TO.N,3V3*%
X93499994Y-56055001D03*
%TD*%
D26*
%TO.P,U2,1,IN_1*%
%TO.N,VBUS*%
X111450000Y-85800002D03*
%TO.P,U2,2,GND_2*%
%TO.N,GND*%
X112399997Y-85800000D03*
%TO.P,U2,3,EN_3*%
%TO.N,VBUS*%
X113350002Y-85800000D03*
%TO.P,U2,4,NC_4*%
%TO.N,unconnected-(U2-NC-Pad4)*%
X113350000Y-83199998D03*
%TO.P,U2,5,OUT_5*%
%TO.N,3V3*%
X111449998Y-83200000D03*
D27*
%TO.P,U2,6,EP_6*%
%TO.N,GND*%
X112400000Y-84500000D03*
D28*
%TO.P,U2,7*%
%TO.N,N/C*%
X113500000Y-84500000D03*
%TO.P,U2,8*%
X112400000Y-84500000D03*
%TO.P,U2,9*%
X111300000Y-84500000D03*
%TD*%
D12*
%TO.P,S2,1*%
%TO.N,IO2*%
X113000000Y-56960000D03*
D13*
%TO.P,S2,2*%
%TO.N,GND*%
X113000000Y-59500000D03*
%TD*%
D12*
%TO.P,J2,1*%
%TO.N,VBUS*%
X97000000Y-89000000D03*
D13*
%TO.P,J2,2*%
%TO.N,GND*%
X97000000Y-91540001D03*
%TD*%
D29*
%TO.N,Net-(U6-{slash}WP(IO2))*%
X104506767Y-52493233D03*
X101500000Y-53500000D03*
%TO.N,VBUS*%
X111799997Y-87000000D03*
X113000000Y-87000000D03*
%TO.N,3V3*%
X103000000Y-61500000D03*
X97500000Y-57000000D03*
%TO.N,CS*%
X100000000Y-48000000D03*
X102000000Y-52500000D03*
%TO.N,GND*%
X114000000Y-28500000D03*
%TO.N,SCL*%
X110000000Y-69000000D03*
X97500000Y-50000000D03*
X111000000Y-59000000D03*
%TO.N,SDA*%
X112500000Y-69000000D03*
X109500000Y-60126625D03*
X97000000Y-43500000D03*
X109500000Y-56500000D03*
%TO.N,INT*%
X101000000Y-43500000D03*
X104500000Y-63000000D03*
X103000000Y-60500000D03*
X109000000Y-54000000D03*
%TO.N,IO2*%
X113660000Y-46170000D03*
%TO.N,D+*%
X92050000Y-47000000D03*
X102425000Y-91500000D03*
%TO.N,D-*%
X101575000Y-91500000D03*
X91200000Y-47000000D03*
%TD*%
%TO.N,3V3*%
D30*
X111238000Y-67250000D02*
X111238000Y-67000001D01*
X111238000Y-67000001D02*
X111500001Y-66738000D01*
X111500001Y-66738000D02*
X108000000Y-66738000D01*
X111449998Y-83200000D02*
X108000000Y-79750002D01*
X108000000Y-79750002D02*
X108000000Y-66738000D01*
%TO.N,GND*%
X111850000Y-52415000D02*
X111029998Y-51594998D01*
X111029998Y-51594998D02*
X106104998Y-51594998D01*
%TO.N,Net-(U6-{slash}WP(IO2))*%
X105733237Y-52493233D02*
X106105002Y-52864998D01*
X93500006Y-49944999D02*
X97055007Y-53500000D01*
X97055007Y-53500000D02*
X101500000Y-53500000D01*
X104506767Y-52493233D02*
X105733237Y-52493233D01*
%TO.N,VBUS*%
X97000000Y-89000000D02*
X101175000Y-93175000D01*
X101175000Y-93175000D02*
X101175000Y-96300000D01*
X101175000Y-96300000D02*
X101200000Y-96325000D01*
%TO.N,GND*%
X97000000Y-91540001D02*
X99300000Y-93840001D01*
X99300000Y-93840001D02*
X99300000Y-96550000D01*
%TO.N,VBUS*%
X111799997Y-87000000D02*
X109799997Y-89000000D01*
X109799997Y-89000000D02*
X97000000Y-89000000D01*
X113350002Y-85800000D02*
X113350002Y-86649998D01*
X113350002Y-86649998D02*
X113000000Y-87000000D01*
X111799997Y-87000000D02*
X111799997Y-86149999D01*
X111799997Y-86149999D02*
X111450000Y-85800002D01*
%TO.N,3V3*%
X108000000Y-66738000D02*
X107389471Y-66738000D01*
X107389471Y-66738000D02*
X104186826Y-63535355D01*
D31*
X106022372Y-63604253D02*
X104326435Y-63604253D01*
X104326435Y-63604253D02*
X103000000Y-62277818D01*
X103000000Y-62277818D02*
X103000000Y-61500000D01*
X105477374Y-61459257D02*
X103040743Y-61459257D01*
X103040743Y-61459257D02*
X103000000Y-61500000D01*
D30*
X93499994Y-56055001D02*
X96555001Y-56055001D01*
X96555001Y-56055001D02*
X97500000Y-57000000D01*
%TO.N,CS*%
X100000000Y-48000000D02*
X99825000Y-47825000D01*
X106104994Y-55405005D02*
X104905005Y-55405005D01*
X104905005Y-55405005D02*
X102000000Y-52500000D01*
X99825000Y-47825000D02*
X99825000Y-45500000D01*
%TO.N,MISO*%
X106104996Y-54134993D02*
X105299997Y-54134993D01*
X105299997Y-54134993D02*
X103635000Y-52469996D01*
X103635000Y-52469996D02*
X103635000Y-45500000D01*
%TO.N,CLK*%
X98895004Y-52865007D02*
X99700003Y-52865007D01*
X99700003Y-52865007D02*
X102365000Y-50200010D01*
X102365000Y-50200010D02*
X102365000Y-45500000D01*
%TO.N,MOSI*%
X98895006Y-51594995D02*
X101095000Y-49395001D01*
X101095000Y-49395001D02*
X101095000Y-45500000D01*
%TO.N,Net-(U6-{slash}HOLD{slash}RESET(IO3))*%
X98894998Y-54135002D02*
X99103804Y-54135002D01*
X99103804Y-54135002D02*
X100000002Y-55031200D01*
X100000002Y-55031200D02*
X100000002Y-55778804D01*
X100000002Y-55778804D02*
X97833802Y-57945004D01*
X97833802Y-57945004D02*
X93500010Y-57945004D01*
%TO.N,3V3*%
X98895002Y-55405002D02*
X94149993Y-55405002D01*
X94149993Y-55405002D02*
X93499994Y-56055001D01*
X90600000Y-53155007D02*
X90600000Y-61155006D01*
X90600000Y-61155006D02*
X93499990Y-64054996D01*
X94250000Y-30280000D02*
X93300000Y-30280000D01*
X93300000Y-30280000D02*
X90600000Y-32980000D01*
X90600000Y-32980000D02*
X90600000Y-53155007D01*
X90600000Y-53155007D02*
X93499994Y-56055001D01*
%TO.N,GND*%
X108895747Y-63604253D02*
X108032372Y-63604253D01*
X101500000Y-36860000D02*
X100100000Y-36860000D01*
X101500000Y-35460000D02*
X100100000Y-35460000D01*
X113240000Y-27740000D02*
X114000000Y-28500000D01*
X103700000Y-99000000D02*
X101300000Y-99000000D01*
X101500000Y-34060000D02*
X102900000Y-34060000D01*
X100100000Y-36860000D02*
X100100000Y-35460000D01*
X112710000Y-69780000D02*
X113142100Y-69347900D01*
X112627818Y-83950001D02*
X112400000Y-83950001D01*
X101500000Y-35460000D02*
X102900000Y-36860000D01*
X113000000Y-66237999D02*
X112499999Y-66738000D01*
X113000000Y-59500000D02*
X113000000Y-66237999D01*
X99200000Y-96650000D02*
X99300000Y-96550000D01*
X101500000Y-35460000D02*
X100100000Y-36860000D01*
X102900000Y-34060000D02*
X102900000Y-35460000D01*
X103800000Y-96325000D02*
X105475000Y-96325000D01*
X102900000Y-35460000D02*
X102900000Y-36860000D01*
X112399997Y-89850003D02*
X112399997Y-85800000D01*
X105700000Y-98900000D02*
X105800000Y-99000000D01*
X112499999Y-66738000D02*
X112000000Y-66738000D01*
X109220000Y-27740000D02*
X111750000Y-27740000D01*
X95200000Y-27740000D02*
X94250000Y-27740000D01*
X112399997Y-85800000D02*
X112399997Y-85049999D01*
X111500001Y-69590001D02*
X111690000Y-69780000D01*
X101300000Y-99000000D02*
X99200000Y-99000000D01*
X105800000Y-99000000D02*
X103700000Y-99000000D01*
X102900000Y-36860000D02*
X101500000Y-36860000D01*
X111850000Y-58350000D02*
X113000000Y-59500000D01*
X100100000Y-35460000D02*
X100100000Y-34060000D01*
X101500000Y-35460000D02*
X101500000Y-36860000D01*
X100100000Y-34060000D02*
X101500000Y-34060000D01*
X101500000Y-35460000D02*
X102900000Y-34060000D01*
X113142100Y-69347900D02*
X113142100Y-68262000D01*
X112710000Y-83867819D02*
X112627818Y-83950001D01*
X101500000Y-35460000D02*
X101500000Y-34060000D01*
X105700000Y-96550000D02*
X112399997Y-89850003D01*
X111750000Y-27740000D02*
X113240000Y-27740000D01*
X100100000Y-32640000D02*
X95200000Y-27740000D01*
X113214400Y-68189700D02*
X113214400Y-66810300D01*
X111690000Y-69780000D02*
X112710000Y-69780000D01*
X113142100Y-68262000D02*
X113214400Y-68189700D01*
X112710000Y-69780000D02*
X112710000Y-83867819D01*
X100100000Y-34060000D02*
X100100000Y-32640000D01*
X113214400Y-66810300D02*
X113142100Y-66738000D01*
X99200000Y-99000000D02*
X99200000Y-96650000D01*
X111850000Y-52415000D02*
X111850000Y-58350000D01*
X113000000Y-59500000D02*
X108895747Y-63604253D01*
X102900000Y-34060000D02*
X109220000Y-27740000D01*
X113000000Y-51265000D02*
X111850000Y-52415000D01*
X112499999Y-68262000D02*
X113142100Y-68262000D01*
X105700000Y-96550000D02*
X105700000Y-98900000D01*
X113142100Y-66738000D02*
X112499999Y-66738000D01*
X101500000Y-35460000D02*
X102900000Y-35460000D01*
X100100000Y-34060000D02*
X101500000Y-35460000D01*
X105475000Y-96325000D02*
X105700000Y-96550000D01*
X111500001Y-68262000D02*
X111500001Y-69590001D01*
%TO.N,3V3*%
X112119900Y-67750000D02*
X111500001Y-67130101D01*
X94250000Y-29010000D02*
X94250000Y-30280000D01*
X112762000Y-67750000D02*
X112119900Y-67750000D01*
X111500001Y-67130101D02*
X111500001Y-66738000D01*
%TO.N,IO1*%
X114400000Y-29870000D02*
X113540000Y-29010000D01*
X113540000Y-29010000D02*
X111750000Y-29010000D01*
X113000000Y-48725000D02*
X114400000Y-47325000D01*
X114400000Y-47325000D02*
X114400000Y-29870000D01*
%TO.N,SCL*%
D31*
X109459253Y-61459253D02*
X109500000Y-61500000D01*
D30*
X98555000Y-45500000D02*
X98555000Y-48945000D01*
X110500000Y-59500000D02*
X110500000Y-61000000D01*
X110000000Y-68988000D02*
X111238000Y-67750000D01*
X110000000Y-61500000D02*
X109500000Y-61500000D01*
X98555000Y-48945000D02*
X97500000Y-50000000D01*
D31*
X108567376Y-61459253D02*
X109459253Y-61459253D01*
D30*
X110500000Y-61000000D02*
X110000000Y-61500000D01*
X111000000Y-59000000D02*
X110500000Y-59500000D01*
X110000000Y-69000000D02*
X110000000Y-68988000D01*
%TO.N,SDA*%
X94250000Y-41710000D02*
X95210000Y-41710000D01*
X112000000Y-68500000D02*
X112500000Y-69000000D01*
D31*
X109500000Y-60126625D02*
X109500000Y-59500000D01*
D30*
X109500000Y-56500000D02*
X109500000Y-59500000D01*
X95210000Y-41710000D02*
X97000000Y-43500000D01*
X112000000Y-68262000D02*
X112000000Y-68500000D01*
D31*
X108567372Y-61059253D02*
X109500000Y-60126625D01*
%TO.N,INT*%
D30*
X94250000Y-31550000D02*
X95200000Y-31550000D01*
X95200000Y-31550000D02*
X99350000Y-35700000D01*
X104500000Y-63000000D02*
X104979197Y-63000000D01*
X99350000Y-41850000D02*
X101000000Y-43500000D01*
X104979197Y-63000000D02*
X105048450Y-63069253D01*
X105048450Y-63069253D02*
X105477372Y-63069253D01*
X99350000Y-35700000D02*
X99350000Y-41850000D01*
X103000000Y-60000000D02*
X103000000Y-60500000D01*
X109000000Y-54000000D02*
X103000000Y-60000000D01*
%TO.N,IO2*%
X112700000Y-30280000D02*
X113660000Y-31240000D01*
X111750000Y-30280000D02*
X112700000Y-30280000D01*
X113660000Y-31240000D02*
X113660000Y-46170000D01*
%TO.N,D+*%
X92714999Y-43840000D02*
X92478198Y-43840000D01*
X94250000Y-44250000D02*
X93124999Y-44250000D01*
X102350000Y-95363632D02*
X102350000Y-96175000D01*
X91850001Y-44468197D02*
X91850001Y-46800001D01*
X91850001Y-46800001D02*
X92050000Y-47000000D01*
X92478198Y-43840000D02*
X91850001Y-44468197D01*
X102425000Y-91500000D02*
X102025001Y-91899999D01*
X93124999Y-44250000D02*
X92714999Y-43840000D01*
X102350000Y-96175000D02*
X102500000Y-96325000D01*
X102025001Y-91899999D02*
X102025001Y-95038633D01*
X102025001Y-95038633D02*
X102350000Y-95363632D01*
%TO.N,D-*%
X91399999Y-44281803D02*
X91399999Y-46800001D01*
X94250000Y-42980000D02*
X93124999Y-42980000D01*
X92291802Y-43390000D02*
X91399999Y-44281803D01*
X93124999Y-42980000D02*
X92714999Y-43390000D01*
X101700000Y-95350000D02*
X101700000Y-96161397D01*
X101575000Y-95350000D02*
X101700000Y-95350000D01*
X101700000Y-96161397D02*
X101850000Y-96311397D01*
X92714999Y-43390000D02*
X92291802Y-43390000D01*
X101850000Y-96311397D02*
X101850000Y-96325000D01*
X91399999Y-46800001D02*
X91200000Y-47000000D01*
X101575000Y-91500000D02*
X101575000Y-95350000D01*
%TD*%
M02*
