%TF.GenerationSoftware,KiCad,Pcbnew,10.0.3*%
%TF.CreationDate,2026-06-26T11:38:09-07:00*%
%TF.ProjectId,alti,616c7469-2e6b-4696-9361-645f70636258,rev?*%
%TF.SameCoordinates,Original*%
%TF.FileFunction,Copper,L2,Bot*%
%TF.FilePolarity,Positive*%
%FSLAX46Y46*%
G04 Gerber Fmt 4.6, Leading zero omitted, Abs format (unit mm)*
G04 Created by KiCad (PCBNEW 10.0.3) date 2026-06-26 11:38:09*
%MOMM*%
%LPD*%
G01*
G04 APERTURE LIST*
%TA.AperFunction,ComponentPad*%
%ADD10R,1.700000X1.700000*%
%TD*%
%TA.AperFunction,ComponentPad*%
%ADD11C,1.700000*%
%TD*%
%TA.AperFunction,ComponentPad*%
%ADD12O,0.900000X1.800000*%
%TD*%
%TA.AperFunction,ComponentPad*%
%ADD13C,0.499999*%
%TD*%
%TA.AperFunction,ViaPad*%
%ADD14C,0.600000*%
%TD*%
%TA.AperFunction,Conductor*%
%ADD15C,0.200000*%
%TD*%
G04 APERTURE END LIST*
D10*
%TO.P,S1,1*%
%TO.N,IO1*%
X113000000Y-48725000D03*
D11*
%TO.P,S1,2*%
%TO.N,GND*%
X113000000Y-51265000D03*
%TD*%
D12*
%TO.P,J3,S5,SHIELD__4_S5*%
%TO.N,GND*%
X99200000Y-99000000D03*
%TO.P,J3,S6,SHIELD__5_S6*%
X105800000Y-99000000D03*
%TD*%
D13*
%TO.P,U2,7*%
%TO.N,N/C*%
X113500000Y-84500000D03*
%TO.P,U2,8*%
X112400000Y-84500000D03*
%TO.P,U2,9*%
X111300000Y-84500000D03*
%TD*%
D10*
%TO.P,S2,1*%
%TO.N,IO2*%
X113000000Y-56960000D03*
D11*
%TO.P,S2,2*%
%TO.N,GND*%
X113000000Y-59500000D03*
%TD*%
D10*
%TO.P,J2,1*%
%TO.N,VBUS*%
X97000000Y-89000000D03*
D11*
%TO.P,J2,2*%
%TO.N,GND*%
X97000000Y-91540001D03*
%TD*%
D14*
%TO.N,Net-(U6-{slash}WP(IO2))*%
X104506767Y-52493233D03*
X101500000Y-53500000D03*
%TO.N,VBUS*%
X111799997Y-87000000D03*
X113000000Y-87000000D03*
%TO.N,3V3*%
X103000000Y-61500000D03*
X97500000Y-57000000D03*
%TO.N,CS*%
X100000000Y-48000000D03*
X102000000Y-52500000D03*
%TO.N,GND*%
X114000000Y-28500000D03*
%TO.N,SCL*%
X110000000Y-69000000D03*
X97500000Y-50000000D03*
X111000000Y-59000000D03*
%TO.N,SDA*%
X112500000Y-69000000D03*
X109500000Y-60126625D03*
X97000000Y-43500000D03*
X109500000Y-56500000D03*
%TO.N,INT*%
X101000000Y-43500000D03*
X104500000Y-63000000D03*
X103000000Y-60500000D03*
X109000000Y-54000000D03*
%TO.N,IO2*%
X113660000Y-46170000D03*
%TO.N,D+*%
X92050000Y-47000000D03*
X102425000Y-91500000D03*
%TO.N,D-*%
X101575000Y-91500000D03*
X91200000Y-47000000D03*
%TD*%
%TO.N,Net-(U6-{slash}WP(IO2))*%
D15*
X101500000Y-53500000D02*
X103500000Y-53500000D01*
X103500000Y-53500000D02*
X104506767Y-52493233D01*
%TO.N,VBUS*%
X113000000Y-87000000D02*
X111799997Y-87000000D01*
%TO.N,3V3*%
X102000000Y-61500000D02*
X103000000Y-61500000D01*
X97500000Y-57000000D02*
X102000000Y-61500000D01*
%TO.N,CS*%
X100000000Y-50500000D02*
X100000000Y-48000000D01*
X102000000Y-52500000D02*
X100000000Y-50500000D01*
%TO.N,GND*%
X114000000Y-28500000D02*
X111850000Y-30650000D01*
X111850000Y-50115000D02*
X113000000Y-51265000D01*
X111850000Y-30650000D02*
X111850000Y-50115000D01*
%TO.N,SCL*%
X114400000Y-65900000D02*
X114400000Y-69600000D01*
X114400000Y-69600000D02*
X114000000Y-70000000D01*
X109000000Y-57000000D02*
X111000000Y-59000000D01*
X97400000Y-52248529D02*
X102151471Y-57000000D01*
X102151471Y-57000000D02*
X109000000Y-57000000D01*
X114000000Y-70000000D02*
X111000000Y-70000000D01*
X111000000Y-59000000D02*
X111000000Y-62500000D01*
X97400000Y-50100000D02*
X97400000Y-52248529D01*
X111000000Y-70000000D02*
X110000000Y-69000000D01*
X111000000Y-62500000D02*
X114400000Y-65900000D01*
X97500000Y-50000000D02*
X97400000Y-50100000D01*
%TO.N,SDA*%
X109500000Y-56000000D02*
X109500000Y-56500000D01*
X97000000Y-43500000D02*
X109500000Y-56000000D01*
X112500000Y-69000000D02*
X114000000Y-67500000D01*
X109500000Y-62000000D02*
X109500000Y-60126625D01*
X114000000Y-66500000D02*
X109500000Y-62000000D01*
X114000000Y-67500000D02*
X114000000Y-66500000D01*
%TO.N,INT*%
X103000000Y-60500000D02*
X104500000Y-62000000D01*
X101348529Y-43500000D02*
X109000000Y-51151471D01*
X109000000Y-51151471D02*
X109000000Y-54000000D01*
X104500000Y-62000000D02*
X104500000Y-63000000D01*
X101000000Y-43500000D02*
X101348529Y-43500000D01*
%TO.N,IO2*%
X113660000Y-46170000D02*
X114390000Y-46900000D01*
X114390000Y-55570000D02*
X113000000Y-56960000D01*
X114390000Y-46900000D02*
X114390000Y-55570000D01*
%TO.N,D+*%
X92049980Y-51934917D02*
X91850001Y-52134896D01*
X92050000Y-47000000D02*
X91850001Y-47199999D01*
X91850001Y-47199999D02*
X91850001Y-50865104D01*
X91850001Y-52134896D02*
X91850001Y-80031803D01*
X91850001Y-80031803D02*
X102225001Y-90406803D01*
X92049980Y-51065083D02*
X92049980Y-51934917D01*
X102225001Y-91300001D02*
X102425000Y-91500000D01*
X91850001Y-50865104D02*
X92049980Y-51065083D01*
X102225001Y-90406803D02*
X102225001Y-91300001D01*
%TO.N,D-*%
X91399999Y-51051470D02*
X91600000Y-51251471D01*
X91600000Y-51748529D02*
X91400000Y-51948529D01*
X91200000Y-47000000D02*
X91399999Y-47199999D01*
X101774999Y-90593197D02*
X101774999Y-91300001D01*
X101774999Y-91300001D02*
X101575000Y-91500000D01*
X91600000Y-51251471D02*
X91600000Y-51748529D01*
X91399999Y-80218197D02*
X101774999Y-90593197D01*
X91399999Y-47199999D02*
X91399999Y-51051470D01*
X91400000Y-51948529D02*
X91399999Y-80218197D01*
%TD*%
M02*
