%TF.GenerationSoftware,KiCad,Pcbnew,10.0.3*%
%TF.CreationDate,2026-06-26T11:38:09-07:00*%
%TF.ProjectId,alti,616c7469-2e6b-4696-9361-645f70636258,rev?*%
%TF.SameCoordinates,Original*%
%TF.FileFunction,Legend,Top*%
%TF.FilePolarity,Positive*%
%FSLAX46Y46*%
G04 Gerber Fmt 4.6, Leading zero omitted, Abs format (unit mm)*
G04 Created by KiCad (PCBNEW 10.0.3) date 2026-06-26 11:38:09*
%MOMM*%
%LPD*%
G01*
G04 APERTURE LIST*
%ADD10C,0.150000*%
%ADD11C,0.098425*%
%ADD12C,0.127000*%
%ADD13C,0.200000*%
%ADD14C,0.120000*%
%ADD15C,0.152400*%
%ADD16C,0.000000*%
%ADD17C,0.250000*%
G04 APERTURE END LIST*
D10*
X100604817Y-74833336D02*
X100128626Y-75166669D01*
X100604817Y-75404764D02*
X99604817Y-75404764D01*
X99604817Y-75404764D02*
X99604817Y-75023812D01*
X99604817Y-75023812D02*
X99652436Y-74928574D01*
X99652436Y-74928574D02*
X99700055Y-74880955D01*
X99700055Y-74880955D02*
X99795293Y-74833336D01*
X99795293Y-74833336D02*
X99938150Y-74833336D01*
X99938150Y-74833336D02*
X100033388Y-74880955D01*
X100033388Y-74880955D02*
X100081007Y-74928574D01*
X100081007Y-74928574D02*
X100128626Y-75023812D01*
X100128626Y-75023812D02*
X100128626Y-75404764D01*
X100081007Y-74404764D02*
X100081007Y-74071431D01*
X100604817Y-73928574D02*
X100604817Y-74404764D01*
X100604817Y-74404764D02*
X99604817Y-74404764D01*
X99604817Y-74404764D02*
X99604817Y-73928574D01*
X100081007Y-73166669D02*
X100081007Y-73500002D01*
X100604817Y-73500002D02*
X99604817Y-73500002D01*
X99604817Y-73500002D02*
X99604817Y-73023812D01*
X99604817Y-72500002D02*
X99842912Y-72500002D01*
X99747674Y-72738097D02*
X99842912Y-72500002D01*
X99842912Y-72500002D02*
X99747674Y-72261907D01*
X100033388Y-72642859D02*
X99842912Y-72500002D01*
X99842912Y-72500002D02*
X100033388Y-72357145D01*
X99604817Y-71738097D02*
X99842912Y-71738097D01*
X99747674Y-71976192D02*
X99842912Y-71738097D01*
X99842912Y-71738097D02*
X99747674Y-71500002D01*
X100033388Y-71880954D02*
X99842912Y-71738097D01*
X99842912Y-71738097D02*
X100033388Y-71595240D01*
X100804825Y-74833336D02*
X100328634Y-75166669D01*
X100804825Y-75404764D02*
X99804825Y-75404764D01*
X99804825Y-75404764D02*
X99804825Y-75023812D01*
X99804825Y-75023812D02*
X99852444Y-74928574D01*
X99852444Y-74928574D02*
X99900063Y-74880955D01*
X99900063Y-74880955D02*
X99995301Y-74833336D01*
X99995301Y-74833336D02*
X100138158Y-74833336D01*
X100138158Y-74833336D02*
X100233396Y-74880955D01*
X100233396Y-74880955D02*
X100281015Y-74928574D01*
X100281015Y-74928574D02*
X100328634Y-75023812D01*
X100328634Y-75023812D02*
X100328634Y-75404764D01*
X100281015Y-74404764D02*
X100281015Y-74071431D01*
X100804825Y-73928574D02*
X100804825Y-74404764D01*
X100804825Y-74404764D02*
X99804825Y-74404764D01*
X99804825Y-74404764D02*
X99804825Y-73928574D01*
X100281015Y-73166669D02*
X100281015Y-73500002D01*
X100804825Y-73500002D02*
X99804825Y-73500002D01*
X99804825Y-73500002D02*
X99804825Y-73023812D01*
X99804825Y-72500002D02*
X100042920Y-72500002D01*
X99947682Y-72738097D02*
X100042920Y-72500002D01*
X100042920Y-72500002D02*
X99947682Y-72261907D01*
X100233396Y-72642859D02*
X100042920Y-72500002D01*
X100042920Y-72500002D02*
X100233396Y-72357145D01*
X99804825Y-71738097D02*
X100042920Y-71738097D01*
X99947682Y-71976192D02*
X100042920Y-71738097D01*
X100042920Y-71738097D02*
X99947682Y-71500002D01*
X100233396Y-71880954D02*
X100042920Y-71738097D01*
X100042920Y-71738097D02*
X100233396Y-71595240D01*
X103223099Y-56656820D02*
X103223099Y-57466343D01*
X103223099Y-57466343D02*
X103270718Y-57561581D01*
X103270718Y-57561581D02*
X103318337Y-57609201D01*
X103318337Y-57609201D02*
X103413575Y-57656820D01*
X103413575Y-57656820D02*
X103604051Y-57656820D01*
X103604051Y-57656820D02*
X103699289Y-57609201D01*
X103699289Y-57609201D02*
X103746908Y-57561581D01*
X103746908Y-57561581D02*
X103794527Y-57466343D01*
X103794527Y-57466343D02*
X103794527Y-56656820D01*
X104699289Y-56656820D02*
X104508813Y-56656820D01*
X104508813Y-56656820D02*
X104413575Y-56704439D01*
X104413575Y-56704439D02*
X104365956Y-56752058D01*
X104365956Y-56752058D02*
X104270718Y-56894915D01*
X104270718Y-56894915D02*
X104223099Y-57085391D01*
X104223099Y-57085391D02*
X104223099Y-57466343D01*
X104223099Y-57466343D02*
X104270718Y-57561581D01*
X104270718Y-57561581D02*
X104318337Y-57609201D01*
X104318337Y-57609201D02*
X104413575Y-57656820D01*
X104413575Y-57656820D02*
X104604051Y-57656820D01*
X104604051Y-57656820D02*
X104699289Y-57609201D01*
X104699289Y-57609201D02*
X104746908Y-57561581D01*
X104746908Y-57561581D02*
X104794527Y-57466343D01*
X104794527Y-57466343D02*
X104794527Y-57228248D01*
X104794527Y-57228248D02*
X104746908Y-57133010D01*
X104746908Y-57133010D02*
X104699289Y-57085391D01*
X104699289Y-57085391D02*
X104604051Y-57037772D01*
X104604051Y-57037772D02*
X104413575Y-57037772D01*
X104413575Y-57037772D02*
X104318337Y-57085391D01*
X104318337Y-57085391D02*
X104270718Y-57133010D01*
X104270718Y-57133010D02*
X104223099Y-57228248D01*
D11*
X95907007Y-58475620D02*
X95719531Y-58606854D01*
X95907007Y-58700592D02*
X95513306Y-58700592D01*
X95513306Y-58700592D02*
X95513306Y-58550611D01*
X95513306Y-58550611D02*
X95532054Y-58513116D01*
X95532054Y-58513116D02*
X95550802Y-58494368D01*
X95550802Y-58494368D02*
X95588297Y-58475620D01*
X95588297Y-58475620D02*
X95644540Y-58475620D01*
X95644540Y-58475620D02*
X95682035Y-58494368D01*
X95682035Y-58494368D02*
X95700783Y-58513116D01*
X95700783Y-58513116D02*
X95719531Y-58550611D01*
X95719531Y-58550611D02*
X95719531Y-58700592D01*
X95513306Y-58138162D02*
X95513306Y-58213153D01*
X95513306Y-58213153D02*
X95532054Y-58250648D01*
X95532054Y-58250648D02*
X95550802Y-58269396D01*
X95550802Y-58269396D02*
X95607045Y-58306891D01*
X95607045Y-58306891D02*
X95682035Y-58325639D01*
X95682035Y-58325639D02*
X95832017Y-58325639D01*
X95832017Y-58325639D02*
X95869512Y-58306891D01*
X95869512Y-58306891D02*
X95888260Y-58288144D01*
X95888260Y-58288144D02*
X95907007Y-58250648D01*
X95907007Y-58250648D02*
X95907007Y-58175658D01*
X95907007Y-58175658D02*
X95888260Y-58138162D01*
X95888260Y-58138162D02*
X95869512Y-58119415D01*
X95869512Y-58119415D02*
X95832017Y-58100667D01*
X95832017Y-58100667D02*
X95738278Y-58100667D01*
X95738278Y-58100667D02*
X95700783Y-58119415D01*
X95700783Y-58119415D02*
X95682035Y-58138162D01*
X95682035Y-58138162D02*
X95663288Y-58175658D01*
X95663288Y-58175658D02*
X95663288Y-58250648D01*
X95663288Y-58250648D02*
X95682035Y-58288144D01*
X95682035Y-58288144D02*
X95700783Y-58306891D01*
X95700783Y-58306891D02*
X95738278Y-58325639D01*
D10*
X112238095Y-46752200D02*
X112380952Y-46799819D01*
X112380952Y-46799819D02*
X112619047Y-46799819D01*
X112619047Y-46799819D02*
X112714285Y-46752200D01*
X112714285Y-46752200D02*
X112761904Y-46704580D01*
X112761904Y-46704580D02*
X112809523Y-46609342D01*
X112809523Y-46609342D02*
X112809523Y-46514104D01*
X112809523Y-46514104D02*
X112761904Y-46418866D01*
X112761904Y-46418866D02*
X112714285Y-46371247D01*
X112714285Y-46371247D02*
X112619047Y-46323628D01*
X112619047Y-46323628D02*
X112428571Y-46276009D01*
X112428571Y-46276009D02*
X112333333Y-46228390D01*
X112333333Y-46228390D02*
X112285714Y-46180771D01*
X112285714Y-46180771D02*
X112238095Y-46085533D01*
X112238095Y-46085533D02*
X112238095Y-45990295D01*
X112238095Y-45990295D02*
X112285714Y-45895057D01*
X112285714Y-45895057D02*
X112333333Y-45847438D01*
X112333333Y-45847438D02*
X112428571Y-45799819D01*
X112428571Y-45799819D02*
X112666666Y-45799819D01*
X112666666Y-45799819D02*
X112809523Y-45847438D01*
X113761904Y-46799819D02*
X113190476Y-46799819D01*
X113476190Y-46799819D02*
X113476190Y-45799819D01*
X113476190Y-45799819D02*
X113380952Y-45942676D01*
X113380952Y-45942676D02*
X113285714Y-46037914D01*
X113285714Y-46037914D02*
X113190476Y-46085533D01*
X111238095Y-66954819D02*
X111238095Y-67764342D01*
X111238095Y-67764342D02*
X111285714Y-67859580D01*
X111285714Y-67859580D02*
X111333333Y-67907200D01*
X111333333Y-67907200D02*
X111428571Y-67954819D01*
X111428571Y-67954819D02*
X111619047Y-67954819D01*
X111619047Y-67954819D02*
X111714285Y-67907200D01*
X111714285Y-67907200D02*
X111761904Y-67859580D01*
X111761904Y-67859580D02*
X111809523Y-67764342D01*
X111809523Y-67764342D02*
X111809523Y-66954819D01*
X112190476Y-66954819D02*
X112809523Y-66954819D01*
X112809523Y-66954819D02*
X112476190Y-67335771D01*
X112476190Y-67335771D02*
X112619047Y-67335771D01*
X112619047Y-67335771D02*
X112714285Y-67383390D01*
X112714285Y-67383390D02*
X112761904Y-67431009D01*
X112761904Y-67431009D02*
X112809523Y-67526247D01*
X112809523Y-67526247D02*
X112809523Y-67764342D01*
X112809523Y-67764342D02*
X112761904Y-67859580D01*
X112761904Y-67859580D02*
X112714285Y-67907200D01*
X112714285Y-67907200D02*
X112619047Y-67954819D01*
X112619047Y-67954819D02*
X112333333Y-67954819D01*
X112333333Y-67954819D02*
X112238095Y-67907200D01*
X112238095Y-67907200D02*
X112190476Y-67859580D01*
X110450600Y-66454819D02*
X110450600Y-66692914D01*
X110212505Y-66597676D02*
X110450600Y-66692914D01*
X110450600Y-66692914D02*
X110688695Y-66597676D01*
X110307743Y-66883390D02*
X110450600Y-66692914D01*
X110450600Y-66692914D02*
X110593457Y-66883390D01*
X110450600Y-66454819D02*
X110450600Y-66692914D01*
X110212505Y-66597676D02*
X110450600Y-66692914D01*
X110450600Y-66692914D02*
X110688695Y-66597676D01*
X110307743Y-66883390D02*
X110450600Y-66692914D01*
X110450600Y-66692914D02*
X110593457Y-66883390D01*
X101038095Y-18854819D02*
X101038095Y-19664342D01*
X101038095Y-19664342D02*
X101085714Y-19759580D01*
X101085714Y-19759580D02*
X101133333Y-19807200D01*
X101133333Y-19807200D02*
X101228571Y-19854819D01*
X101228571Y-19854819D02*
X101419047Y-19854819D01*
X101419047Y-19854819D02*
X101514285Y-19807200D01*
X101514285Y-19807200D02*
X101561904Y-19759580D01*
X101561904Y-19759580D02*
X101609523Y-19664342D01*
X101609523Y-19664342D02*
X101609523Y-18854819D01*
X102609523Y-19854819D02*
X102038095Y-19854819D01*
X102323809Y-19854819D02*
X102323809Y-18854819D01*
X102323809Y-18854819D02*
X102228571Y-18997676D01*
X102228571Y-18997676D02*
X102133333Y-19092914D01*
X102133333Y-19092914D02*
X102038095Y-19140533D01*
X109362186Y-63496153D02*
X110171709Y-63496153D01*
X110171709Y-63496153D02*
X110266947Y-63448534D01*
X110266947Y-63448534D02*
X110314567Y-63400915D01*
X110314567Y-63400915D02*
X110362186Y-63305677D01*
X110362186Y-63305677D02*
X110362186Y-63115201D01*
X110362186Y-63115201D02*
X110314567Y-63019963D01*
X110314567Y-63019963D02*
X110266947Y-62972344D01*
X110266947Y-62972344D02*
X110171709Y-62924725D01*
X110171709Y-62924725D02*
X109362186Y-62924725D01*
X109362186Y-61972344D02*
X109362186Y-62448534D01*
X109362186Y-62448534D02*
X109838376Y-62496153D01*
X109838376Y-62496153D02*
X109790757Y-62448534D01*
X109790757Y-62448534D02*
X109743138Y-62353296D01*
X109743138Y-62353296D02*
X109743138Y-62115201D01*
X109743138Y-62115201D02*
X109790757Y-62019963D01*
X109790757Y-62019963D02*
X109838376Y-61972344D01*
X109838376Y-61972344D02*
X109933614Y-61924725D01*
X109933614Y-61924725D02*
X110171709Y-61924725D01*
X110171709Y-61924725D02*
X110266947Y-61972344D01*
X110266947Y-61972344D02*
X110314567Y-62019963D01*
X110314567Y-62019963D02*
X110362186Y-62115201D01*
X110362186Y-62115201D02*
X110362186Y-62353296D01*
X110362186Y-62353296D02*
X110314567Y-62448534D01*
X110314567Y-62448534D02*
X110266947Y-62496153D01*
X101021666Y-91079819D02*
X101021666Y-91794104D01*
X101021666Y-91794104D02*
X100974047Y-91936961D01*
X100974047Y-91936961D02*
X100878809Y-92032200D01*
X100878809Y-92032200D02*
X100735952Y-92079819D01*
X100735952Y-92079819D02*
X100640714Y-92079819D01*
X101402619Y-91079819D02*
X102021666Y-91079819D01*
X102021666Y-91079819D02*
X101688333Y-91460771D01*
X101688333Y-91460771D02*
X101831190Y-91460771D01*
X101831190Y-91460771D02*
X101926428Y-91508390D01*
X101926428Y-91508390D02*
X101974047Y-91556009D01*
X101974047Y-91556009D02*
X102021666Y-91651247D01*
X102021666Y-91651247D02*
X102021666Y-91889342D01*
X102021666Y-91889342D02*
X101974047Y-91984580D01*
X101974047Y-91984580D02*
X101926428Y-92032200D01*
X101926428Y-92032200D02*
X101831190Y-92079819D01*
X101831190Y-92079819D02*
X101545476Y-92079819D01*
X101545476Y-92079819D02*
X101450238Y-92032200D01*
X101450238Y-92032200D02*
X101402619Y-91984580D01*
D11*
X95907012Y-50475621D02*
X95719536Y-50606855D01*
X95907012Y-50700593D02*
X95513311Y-50700593D01*
X95513311Y-50700593D02*
X95513311Y-50550612D01*
X95513311Y-50550612D02*
X95532059Y-50513117D01*
X95532059Y-50513117D02*
X95550807Y-50494369D01*
X95550807Y-50494369D02*
X95588302Y-50475621D01*
X95588302Y-50475621D02*
X95644545Y-50475621D01*
X95644545Y-50475621D02*
X95682040Y-50494369D01*
X95682040Y-50494369D02*
X95700788Y-50513117D01*
X95700788Y-50513117D02*
X95719536Y-50550612D01*
X95719536Y-50550612D02*
X95719536Y-50700593D01*
X95513311Y-50119416D02*
X95513311Y-50306892D01*
X95513311Y-50306892D02*
X95700788Y-50325640D01*
X95700788Y-50325640D02*
X95682040Y-50306892D01*
X95682040Y-50306892D02*
X95663293Y-50269397D01*
X95663293Y-50269397D02*
X95663293Y-50175659D01*
X95663293Y-50175659D02*
X95682040Y-50138163D01*
X95682040Y-50138163D02*
X95700788Y-50119416D01*
X95700788Y-50119416D02*
X95738283Y-50100668D01*
X95738283Y-50100668D02*
X95832022Y-50100668D01*
X95832022Y-50100668D02*
X95869517Y-50119416D01*
X95869517Y-50119416D02*
X95888265Y-50138163D01*
X95888265Y-50138163D02*
X95907012Y-50175659D01*
X95907012Y-50175659D02*
X95907012Y-50269397D01*
X95907012Y-50269397D02*
X95888265Y-50306892D01*
X95888265Y-50306892D02*
X95869517Y-50325640D01*
D10*
X111854819Y-85261904D02*
X112664342Y-85261904D01*
X112664342Y-85261904D02*
X112759580Y-85214285D01*
X112759580Y-85214285D02*
X112807200Y-85166666D01*
X112807200Y-85166666D02*
X112854819Y-85071428D01*
X112854819Y-85071428D02*
X112854819Y-84880952D01*
X112854819Y-84880952D02*
X112807200Y-84785714D01*
X112807200Y-84785714D02*
X112759580Y-84738095D01*
X112759580Y-84738095D02*
X112664342Y-84690476D01*
X112664342Y-84690476D02*
X111854819Y-84690476D01*
X111950057Y-84261904D02*
X111902438Y-84214285D01*
X111902438Y-84214285D02*
X111854819Y-84119047D01*
X111854819Y-84119047D02*
X111854819Y-83880952D01*
X111854819Y-83880952D02*
X111902438Y-83785714D01*
X111902438Y-83785714D02*
X111950057Y-83738095D01*
X111950057Y-83738095D02*
X112045295Y-83690476D01*
X112045295Y-83690476D02*
X112140533Y-83690476D01*
X112140533Y-83690476D02*
X112283390Y-83738095D01*
X112283390Y-83738095D02*
X112854819Y-84309523D01*
X112854819Y-84309523D02*
X112854819Y-83690476D01*
X109597818Y-92059067D02*
X108597818Y-92059067D01*
X108597818Y-92059067D02*
X108597818Y-91820972D01*
X108597818Y-91820972D02*
X108645437Y-91678115D01*
X108645437Y-91678115D02*
X108740675Y-91582877D01*
X108740675Y-91582877D02*
X108835913Y-91535258D01*
X108835913Y-91535258D02*
X109026389Y-91487639D01*
X109026389Y-91487639D02*
X109169246Y-91487639D01*
X109169246Y-91487639D02*
X109359722Y-91535258D01*
X109359722Y-91535258D02*
X109454960Y-91582877D01*
X109454960Y-91582877D02*
X109550199Y-91678115D01*
X109550199Y-91678115D02*
X109597818Y-91820972D01*
X109597818Y-91820972D02*
X109597818Y-92059067D01*
X109550199Y-90678115D02*
X109597818Y-90773353D01*
X109597818Y-90773353D02*
X109597818Y-90963829D01*
X109597818Y-90963829D02*
X109550199Y-91059067D01*
X109550199Y-91059067D02*
X109454960Y-91106686D01*
X109454960Y-91106686D02*
X109074008Y-91106686D01*
X109074008Y-91106686D02*
X108978770Y-91059067D01*
X108978770Y-91059067D02*
X108931151Y-90963829D01*
X108931151Y-90963829D02*
X108931151Y-90773353D01*
X108931151Y-90773353D02*
X108978770Y-90678115D01*
X108978770Y-90678115D02*
X109074008Y-90630496D01*
X109074008Y-90630496D02*
X109169246Y-90630496D01*
X109169246Y-90630496D02*
X109264484Y-91106686D01*
X109550199Y-90249543D02*
X109597818Y-90154305D01*
X109597818Y-90154305D02*
X109597818Y-89963829D01*
X109597818Y-89963829D02*
X109550199Y-89868591D01*
X109550199Y-89868591D02*
X109454960Y-89820972D01*
X109454960Y-89820972D02*
X109407341Y-89820972D01*
X109407341Y-89820972D02*
X109312103Y-89868591D01*
X109312103Y-89868591D02*
X109264484Y-89963829D01*
X109264484Y-89963829D02*
X109264484Y-90106686D01*
X109264484Y-90106686D02*
X109216865Y-90201924D01*
X109216865Y-90201924D02*
X109121627Y-90249543D01*
X109121627Y-90249543D02*
X109074008Y-90249543D01*
X109074008Y-90249543D02*
X108978770Y-90201924D01*
X108978770Y-90201924D02*
X108931151Y-90106686D01*
X108931151Y-90106686D02*
X108931151Y-89963829D01*
X108931151Y-89963829D02*
X108978770Y-89868591D01*
X109597818Y-89392400D02*
X108931151Y-89392400D01*
X108597818Y-89392400D02*
X108645437Y-89440019D01*
X108645437Y-89440019D02*
X108693056Y-89392400D01*
X108693056Y-89392400D02*
X108645437Y-89344781D01*
X108645437Y-89344781D02*
X108597818Y-89392400D01*
X108597818Y-89392400D02*
X108693056Y-89392400D01*
X108931151Y-88487639D02*
X109740675Y-88487639D01*
X109740675Y-88487639D02*
X109835913Y-88535258D01*
X109835913Y-88535258D02*
X109883532Y-88582877D01*
X109883532Y-88582877D02*
X109931151Y-88678115D01*
X109931151Y-88678115D02*
X109931151Y-88820972D01*
X109931151Y-88820972D02*
X109883532Y-88916210D01*
X109550199Y-88487639D02*
X109597818Y-88582877D01*
X109597818Y-88582877D02*
X109597818Y-88773353D01*
X109597818Y-88773353D02*
X109550199Y-88868591D01*
X109550199Y-88868591D02*
X109502579Y-88916210D01*
X109502579Y-88916210D02*
X109407341Y-88963829D01*
X109407341Y-88963829D02*
X109121627Y-88963829D01*
X109121627Y-88963829D02*
X109026389Y-88916210D01*
X109026389Y-88916210D02*
X108978770Y-88868591D01*
X108978770Y-88868591D02*
X108931151Y-88773353D01*
X108931151Y-88773353D02*
X108931151Y-88582877D01*
X108931151Y-88582877D02*
X108978770Y-88487639D01*
X108931151Y-88011448D02*
X109597818Y-88011448D01*
X109026389Y-88011448D02*
X108978770Y-87963829D01*
X108978770Y-87963829D02*
X108931151Y-87868591D01*
X108931151Y-87868591D02*
X108931151Y-87725734D01*
X108931151Y-87725734D02*
X108978770Y-87630496D01*
X108978770Y-87630496D02*
X109074008Y-87582877D01*
X109074008Y-87582877D02*
X109597818Y-87582877D01*
X109597818Y-86678115D02*
X109074008Y-86678115D01*
X109074008Y-86678115D02*
X108978770Y-86725734D01*
X108978770Y-86725734D02*
X108931151Y-86820972D01*
X108931151Y-86820972D02*
X108931151Y-87011448D01*
X108931151Y-87011448D02*
X108978770Y-87106686D01*
X109550199Y-86678115D02*
X109597818Y-86773353D01*
X109597818Y-86773353D02*
X109597818Y-87011448D01*
X109597818Y-87011448D02*
X109550199Y-87106686D01*
X109550199Y-87106686D02*
X109454960Y-87154305D01*
X109454960Y-87154305D02*
X109359722Y-87154305D01*
X109359722Y-87154305D02*
X109264484Y-87106686D01*
X109264484Y-87106686D02*
X109216865Y-87011448D01*
X109216865Y-87011448D02*
X109216865Y-86773353D01*
X109216865Y-86773353D02*
X109169246Y-86678115D01*
X108931151Y-86344781D02*
X108931151Y-85963829D01*
X108597818Y-86201924D02*
X109454960Y-86201924D01*
X109454960Y-86201924D02*
X109550199Y-86154305D01*
X109550199Y-86154305D02*
X109597818Y-86059067D01*
X109597818Y-86059067D02*
X109597818Y-85963829D01*
X109597818Y-85487638D02*
X109550199Y-85582876D01*
X109550199Y-85582876D02*
X109502579Y-85630495D01*
X109502579Y-85630495D02*
X109407341Y-85678114D01*
X109407341Y-85678114D02*
X109121627Y-85678114D01*
X109121627Y-85678114D02*
X109026389Y-85630495D01*
X109026389Y-85630495D02*
X108978770Y-85582876D01*
X108978770Y-85582876D02*
X108931151Y-85487638D01*
X108931151Y-85487638D02*
X108931151Y-85344781D01*
X108931151Y-85344781D02*
X108978770Y-85249543D01*
X108978770Y-85249543D02*
X109026389Y-85201924D01*
X109026389Y-85201924D02*
X109121627Y-85154305D01*
X109121627Y-85154305D02*
X109407341Y-85154305D01*
X109407341Y-85154305D02*
X109502579Y-85201924D01*
X109502579Y-85201924D02*
X109550199Y-85249543D01*
X109550199Y-85249543D02*
X109597818Y-85344781D01*
X109597818Y-85344781D02*
X109597818Y-85487638D01*
X109597818Y-84725733D02*
X108931151Y-84725733D01*
X109121627Y-84725733D02*
X109026389Y-84678114D01*
X109026389Y-84678114D02*
X108978770Y-84630495D01*
X108978770Y-84630495D02*
X108931151Y-84535257D01*
X108931151Y-84535257D02*
X108931151Y-84440019D01*
X108597818Y-84201923D02*
X108597818Y-83582876D01*
X108597818Y-83582876D02*
X108978770Y-83916209D01*
X108978770Y-83916209D02*
X108978770Y-83773352D01*
X108978770Y-83773352D02*
X109026389Y-83678114D01*
X109026389Y-83678114D02*
X109074008Y-83630495D01*
X109074008Y-83630495D02*
X109169246Y-83582876D01*
X109169246Y-83582876D02*
X109407341Y-83582876D01*
X109407341Y-83582876D02*
X109502579Y-83630495D01*
X109502579Y-83630495D02*
X109550199Y-83678114D01*
X109550199Y-83678114D02*
X109597818Y-83773352D01*
X109597818Y-83773352D02*
X109597818Y-84059066D01*
X109597818Y-84059066D02*
X109550199Y-84154304D01*
X109550199Y-84154304D02*
X109502579Y-84201923D01*
X108693056Y-83201923D02*
X108645437Y-83154304D01*
X108645437Y-83154304D02*
X108597818Y-83059066D01*
X108597818Y-83059066D02*
X108597818Y-82820971D01*
X108597818Y-82820971D02*
X108645437Y-82725733D01*
X108645437Y-82725733D02*
X108693056Y-82678114D01*
X108693056Y-82678114D02*
X108788294Y-82630495D01*
X108788294Y-82630495D02*
X108883532Y-82630495D01*
X108883532Y-82630495D02*
X109026389Y-82678114D01*
X109026389Y-82678114D02*
X109597818Y-83249542D01*
X109597818Y-83249542D02*
X109597818Y-82630495D01*
X108597818Y-81773352D02*
X108597818Y-81963828D01*
X108597818Y-81963828D02*
X108645437Y-82059066D01*
X108645437Y-82059066D02*
X108693056Y-82106685D01*
X108693056Y-82106685D02*
X108835913Y-82201923D01*
X108835913Y-82201923D02*
X109026389Y-82249542D01*
X109026389Y-82249542D02*
X109407341Y-82249542D01*
X109407341Y-82249542D02*
X109502579Y-82201923D01*
X109502579Y-82201923D02*
X109550199Y-82154304D01*
X109550199Y-82154304D02*
X109597818Y-82059066D01*
X109597818Y-82059066D02*
X109597818Y-81868590D01*
X109597818Y-81868590D02*
X109550199Y-81773352D01*
X109550199Y-81773352D02*
X109502579Y-81725733D01*
X109502579Y-81725733D02*
X109407341Y-81678114D01*
X109407341Y-81678114D02*
X109169246Y-81678114D01*
X109169246Y-81678114D02*
X109074008Y-81725733D01*
X109074008Y-81725733D02*
X109026389Y-81773352D01*
X109026389Y-81773352D02*
X108978770Y-81868590D01*
X108978770Y-81868590D02*
X108978770Y-82059066D01*
X108978770Y-82059066D02*
X109026389Y-82154304D01*
X109026389Y-82154304D02*
X109074008Y-82201923D01*
X109074008Y-82201923D02*
X109169246Y-82249542D01*
X112238095Y-54987200D02*
X112380952Y-55034819D01*
X112380952Y-55034819D02*
X112619047Y-55034819D01*
X112619047Y-55034819D02*
X112714285Y-54987200D01*
X112714285Y-54987200D02*
X112761904Y-54939580D01*
X112761904Y-54939580D02*
X112809523Y-54844342D01*
X112809523Y-54844342D02*
X112809523Y-54749104D01*
X112809523Y-54749104D02*
X112761904Y-54653866D01*
X112761904Y-54653866D02*
X112714285Y-54606247D01*
X112714285Y-54606247D02*
X112619047Y-54558628D01*
X112619047Y-54558628D02*
X112428571Y-54511009D01*
X112428571Y-54511009D02*
X112333333Y-54463390D01*
X112333333Y-54463390D02*
X112285714Y-54415771D01*
X112285714Y-54415771D02*
X112238095Y-54320533D01*
X112238095Y-54320533D02*
X112238095Y-54225295D01*
X112238095Y-54225295D02*
X112285714Y-54130057D01*
X112285714Y-54130057D02*
X112333333Y-54082438D01*
X112333333Y-54082438D02*
X112428571Y-54034819D01*
X112428571Y-54034819D02*
X112666666Y-54034819D01*
X112666666Y-54034819D02*
X112809523Y-54082438D01*
X113190476Y-54130057D02*
X113238095Y-54082438D01*
X113238095Y-54082438D02*
X113333333Y-54034819D01*
X113333333Y-54034819D02*
X113571428Y-54034819D01*
X113571428Y-54034819D02*
X113666666Y-54082438D01*
X113666666Y-54082438D02*
X113714285Y-54130057D01*
X113714285Y-54130057D02*
X113761904Y-54225295D01*
X113761904Y-54225295D02*
X113761904Y-54320533D01*
X113761904Y-54320533D02*
X113714285Y-54463390D01*
X113714285Y-54463390D02*
X113142857Y-55034819D01*
X113142857Y-55034819D02*
X113761904Y-55034819D01*
X96666666Y-85684819D02*
X96666666Y-86399104D01*
X96666666Y-86399104D02*
X96619047Y-86541961D01*
X96619047Y-86541961D02*
X96523809Y-86637200D01*
X96523809Y-86637200D02*
X96380952Y-86684819D01*
X96380952Y-86684819D02*
X96285714Y-86684819D01*
X97095238Y-85780057D02*
X97142857Y-85732438D01*
X97142857Y-85732438D02*
X97238095Y-85684819D01*
X97238095Y-85684819D02*
X97476190Y-85684819D01*
X97476190Y-85684819D02*
X97571428Y-85732438D01*
X97571428Y-85732438D02*
X97619047Y-85780057D01*
X97619047Y-85780057D02*
X97666666Y-85875295D01*
X97666666Y-85875295D02*
X97666666Y-85970533D01*
X97666666Y-85970533D02*
X97619047Y-86113390D01*
X97619047Y-86113390D02*
X97047619Y-86684819D01*
X97047619Y-86684819D02*
X97666666Y-86684819D01*
%TO.C,U6*%
D12*
X105140001Y-50859997D02*
X99859997Y-50859999D01*
X105140003Y-56140001D02*
X99859999Y-56140003D01*
D13*
X107814994Y-55404999D02*
G75*
G02*
X107615004Y-55404999I-99995J0D01*
G01*
X107615004Y-55404999D02*
G75*
G02*
X107814994Y-55404999I99995J0D01*
G01*
%TO.C,R6*%
D12*
X91869999Y-58800000D02*
X91869999Y-63200001D01*
X95130001Y-58799999D02*
X95130001Y-63200000D01*
%TO.C,S1*%
D14*
X111620000Y-47345000D02*
X113000000Y-47345000D01*
X111620000Y-48725000D02*
X111620000Y-47345000D01*
X111620000Y-49995000D02*
X111620000Y-52645000D01*
X111620000Y-49995000D02*
X114380000Y-49995000D01*
X111620000Y-52645000D02*
X114380000Y-52645000D01*
X114380000Y-49995000D02*
X114380000Y-52645000D01*
%TO.C,U3*%
D15*
X110818900Y-66318900D02*
X110818900Y-66911336D01*
X110818900Y-68088664D02*
X110818900Y-68681100D01*
X110818900Y-68681100D02*
X111161336Y-68681100D01*
X111161336Y-66318900D02*
X110818900Y-66318900D01*
X112838664Y-68681100D02*
X113181100Y-68681100D01*
X113181100Y-66318900D02*
X112838664Y-66318900D01*
X113181100Y-66911336D02*
X113181100Y-66318900D01*
X113181100Y-68681100D02*
X113181100Y-68088664D01*
D16*
G36*
X111690501Y-66331600D02*
G01*
X111309501Y-66331600D01*
X111309501Y-66077600D01*
X111690501Y-66077600D01*
X111690501Y-66331600D01*
G37*
%TO.C,U1*%
D12*
X94000000Y-20250000D02*
X112000000Y-20250000D01*
X94000000Y-26970000D02*
X94000000Y-20250000D01*
X94000000Y-45020000D02*
X94000000Y-45750000D01*
X94000000Y-45750000D02*
X95245000Y-45750000D01*
X112000000Y-20250000D02*
X112000000Y-26970000D01*
X112000000Y-45020000D02*
X112000000Y-45750000D01*
X112000000Y-45750000D02*
X110755000Y-45750000D01*
D13*
X92900000Y-27740000D02*
G75*
G02*
X92700000Y-27740000I-100000J0D01*
G01*
X92700000Y-27740000D02*
G75*
G02*
X92900000Y-27740000I100000J0D01*
G01*
%TO.C,U5*%
D12*
X105522371Y-60559252D02*
X105522378Y-60629258D01*
X105522371Y-60559252D02*
X105592380Y-60559250D01*
X105522371Y-63559254D02*
X105522369Y-63489245D01*
X105522371Y-63559254D02*
X105592377Y-63559247D01*
X108522373Y-60559252D02*
X108452367Y-60559259D01*
X108522373Y-60559252D02*
X108522375Y-60629261D01*
X108522373Y-63559254D02*
X108452364Y-63559256D01*
X108522373Y-63559254D02*
X108522366Y-63489248D01*
D13*
X108122374Y-59674252D02*
G75*
G02*
X107922378Y-59674252I-99998J0D01*
G01*
X107922378Y-59674252D02*
G75*
G02*
X108122374Y-59674252I99998J0D01*
G01*
%TO.C,J3*%
D12*
X98700000Y-100450000D02*
X98700000Y-100220000D01*
X98700000Y-100450000D02*
X106300000Y-100450000D01*
X106300000Y-100450000D02*
X106300000Y-100220000D01*
D13*
X101300000Y-94950000D02*
G75*
G02*
X101100000Y-94950000I-100000J0D01*
G01*
X101100000Y-94950000D02*
G75*
G02*
X101300000Y-94950000I100000J0D01*
G01*
%TO.C,R5*%
D12*
X95130001Y-50799999D02*
X95130001Y-55200000D01*
X91869999Y-50800000D02*
X91869999Y-55200001D01*
%TO.C,U2*%
D10*
X110500001Y-85374999D02*
X110500002Y-83624999D01*
X114299998Y-85375001D02*
X114299999Y-83625001D01*
D17*
X111574999Y-86900001D02*
G75*
G02*
X111324997Y-86900001I-125001J0D01*
G01*
X111324997Y-86900001D02*
G75*
G02*
X111574999Y-86900001I125001J0D01*
G01*
%TO.C,S2*%
D14*
X111620000Y-55580000D02*
X113000000Y-55580000D01*
X111620000Y-56960000D02*
X111620000Y-55580000D01*
X111620000Y-58230000D02*
X111620000Y-60880000D01*
X111620000Y-58230000D02*
X114380000Y-58230000D01*
X111620000Y-60880000D02*
X114380000Y-60880000D01*
X114380000Y-58230000D02*
X114380000Y-60880000D01*
%TO.C,J2*%
X95669998Y-92869997D02*
X98329993Y-92870002D01*
X95669997Y-90270000D02*
X95669998Y-92869997D01*
X95669997Y-90270000D02*
X98329998Y-90270005D01*
X98329998Y-90270005D02*
X98329993Y-92870002D01*
X96999998Y-87669999D02*
X98329999Y-87670007D01*
X98329999Y-87670007D02*
X98330001Y-88999998D01*
%TD*%
M02*
