M48
; DRILL file KiCad 10.0.3 date 2026-06-26T11:38:07
; FORMAT={-:-/ absolute / metric / decimal}
; #@! TF.CreationDate,2026-06-26T11:38:07-07:00
; #@! TF.GenerationSoftware,Kicad,Pcbnew,10.0.3
; #@! TF.FileFunction,Plated,1,2,PTH
FMAT,2
METRIC
; #@! TA.AperFunction,Plated,PTH,ComponentDrill
T1C0.203
; #@! TA.AperFunction,Plated,PTH,ViaDrill
T2C0.300
; #@! TA.AperFunction,Plated,PTH,ComponentDrill
T3C0.500
; #@! TA.AperFunction,Plated,PTH,ComponentDrill
T4C1.000
%
G90
G05
T1
X111.3Y-84.5
X112.4Y-84.5
X113.5Y-84.5
T2
X91.2Y-47.0
X92.05Y-47.0
X97.0Y-43.5
X97.5Y-50.0
X97.5Y-57.0
X100.0Y-48.0
X101.0Y-43.5
X101.5Y-53.5
X101.575Y-91.5
X102.0Y-52.5
X102.425Y-91.5
X103.0Y-60.5
X103.0Y-61.5
X104.5Y-63.0
X104.507Y-52.493
X109.0Y-54.0
X109.5Y-56.5
X109.5Y-60.127
X110.0Y-69.0
X111.0Y-59.0
X111.8Y-87.0
X112.5Y-69.0
X113.0Y-87.0
X113.66Y-46.17
X114.0Y-28.5
T4
X97.0Y-89.0
X97.0Y-91.54
X113.0Y-48.725
X113.0Y-51.265
X113.0Y-56.96
X113.0Y-59.5
T3
G00X99.2Y-98.65
M15
G01X99.2Y-99.35
M16
G05
G00X105.8Y-98.65
M15
G01X105.8Y-99.35
M16
G05
M30
