%TF.GenerationSoftware,KiCad,Pcbnew,10.0.3*%
%TF.CreationDate,2026-06-26T11:38:09-07:00*%
%TF.ProjectId,alti,616c7469-2e6b-4696-9361-645f70636258,rev?*%
%TF.SameCoordinates,Original*%
%TF.FileFunction,Paste,Top*%
%TF.FilePolarity,Positive*%
%FSLAX46Y46*%
G04 Gerber Fmt 4.6, Leading zero omitted, Abs format (unit mm)*
G04 Created by KiCad (PCBNEW 10.0.3) date 2026-06-26 11:38:09*
%MOMM*%
%LPD*%
G01*
G04 APERTURE LIST*
G04 Aperture macros list*
%AMRoundRect*
0 Rectangle with rounded corners*
0 $1 Rounding radius*
0 $2 $3 $4 $5 $6 $7 $8 $9 X,Y pos of 4 corners*
0 Add a 4 corners polygon primitive as box body*
4,1,4,$2,$3,$4,$5,$6,$7,$8,$9,$2,$3,0*
0 Add four circle primitives for the rounded corners*
1,1,$1+$1,$2,$3*
1,1,$1+$1,$4,$5*
1,1,$1+$1,$6,$7*
1,1,$1+$1,$8,$9*
0 Add four rect primitives between the rounded corners*
20,1,$1+$1,$2,$3,$4,$5,0*
20,1,$1+$1,$4,$5,$6,$7,0*
20,1,$1+$1,$6,$7,$8,$9,0*
20,1,$1+$1,$8,$9,$2,$3,0*%
G04 Aperture macros list end*
%ADD10C,0.010000*%
%ADD11C,0.000000*%
%ADD12RoundRect,0.072500X0.732500X0.217500X-0.732500X0.217500X-0.732500X-0.217500X0.732500X-0.217500X0*%
%ADD13R,3.270000X1.070000*%
%ADD14R,0.304800X0.279400*%
%ADD15R,0.279400X0.304800*%
%ADD16R,1.500000X0.900000*%
%ADD17R,0.900000X1.500000*%
%ADD18R,0.900000X0.900000*%
%ADD19RoundRect,0.027500X-0.082500X0.292500X-0.082500X-0.292500X0.082500X-0.292500X0.082500X0.292500X0*%
%ADD20RoundRect,0.027500X-0.292500X0.082500X-0.292500X-0.082500X0.292500X-0.082500X0.292500X0.082500X0*%
%ADD21R,0.400000X1.350000*%
%ADD22R,1.600000X1.400000*%
%ADD23R,1.900000X1.900000*%
%ADD24R,0.599999X1.100000*%
G04 APERTURE END LIST*
D10*
%TO.C,U5*%
X107562368Y-61574255D02*
X107562372Y-62544248D01*
X106482376Y-62544251D01*
X106482372Y-61574258D01*
X107562368Y-61574255D01*
G36*
X107562372Y-62544248D02*
G01*
X106482376Y-62544251D01*
X106482372Y-61574258D01*
X107562368Y-61574255D01*
X107562372Y-62544248D01*
G37*
D11*
%TO.C,U2*%
G36*
X113250000Y-84000003D02*
G01*
X113250003Y-84874999D01*
X113200000Y-84925001D01*
X111599998Y-84925001D01*
X111550000Y-84875002D01*
X111549999Y-84000000D01*
X111599999Y-83950003D01*
X113200003Y-83950000D01*
X113250000Y-84000003D01*
G37*
%TD*%
D12*
%TO.C,U6*%
X106104994Y-55405005D03*
X106104996Y-54134993D03*
X106105002Y-52864998D03*
X106104998Y-51594998D03*
X98895006Y-51594995D03*
X98895004Y-52865007D03*
X98894998Y-54135002D03*
X98895002Y-55405002D03*
%TD*%
D13*
%TO.C,R6*%
X93500010Y-57945004D03*
X93499990Y-64054996D03*
%TD*%
D14*
%TO.C,U3*%
X111238000Y-67250000D03*
X111238000Y-67750000D03*
D15*
X111500001Y-68262000D03*
X112000000Y-68262000D03*
X112499999Y-68262000D03*
D14*
X112762000Y-67750000D03*
X112762000Y-67250000D03*
D15*
X112499999Y-66738000D03*
X112000000Y-66738000D03*
X111500001Y-66738000D03*
%TD*%
D16*
%TO.C,U1*%
X94250000Y-27740000D03*
X94250000Y-29010000D03*
X94250000Y-30280000D03*
X94250000Y-31550000D03*
X94250000Y-32820000D03*
X94250000Y-34090000D03*
X94250000Y-35360000D03*
X94250000Y-36630000D03*
X94250000Y-37900000D03*
X94250000Y-39170000D03*
X94250000Y-40440000D03*
X94250000Y-41710000D03*
X94250000Y-42980000D03*
X94250000Y-44250000D03*
D17*
X96015000Y-45500000D03*
X97285000Y-45500000D03*
X98555000Y-45500000D03*
X99825000Y-45500000D03*
X101095000Y-45500000D03*
X102365000Y-45500000D03*
X103635000Y-45500000D03*
X104905000Y-45500000D03*
X106175000Y-45500000D03*
X107445000Y-45500000D03*
X108715000Y-45500000D03*
X109985000Y-45500000D03*
D16*
X111750000Y-44250000D03*
X111750000Y-42980000D03*
X111750000Y-41710000D03*
X111750000Y-40440000D03*
X111750000Y-39170000D03*
X111750000Y-37900000D03*
X111750000Y-36630000D03*
X111750000Y-35360000D03*
X111750000Y-34090000D03*
X111750000Y-32820000D03*
X111750000Y-31550000D03*
X111750000Y-30280000D03*
X111750000Y-29010000D03*
X111750000Y-27740000D03*
D18*
X101500000Y-35460000D03*
X100100000Y-35460000D03*
X102900000Y-35460000D03*
X100100000Y-36860000D03*
X101500000Y-36860000D03*
X102900000Y-36860000D03*
X100100000Y-34060000D03*
X101500000Y-34060000D03*
X102900000Y-34060000D03*
%TD*%
D19*
%TO.C,U5*%
X108022372Y-60514253D03*
X107622368Y-60514255D03*
X107222371Y-60514254D03*
X106822375Y-60514251D03*
X106422372Y-60514249D03*
X106022372Y-60514253D03*
D20*
X105477372Y-61059253D03*
X105477374Y-61459257D03*
X105477373Y-61859254D03*
X105477370Y-62259250D03*
X105477368Y-62659253D03*
X105477372Y-63059253D03*
D19*
X106022372Y-63604253D03*
X106422376Y-63604251D03*
X106822373Y-63604252D03*
X107222369Y-63604255D03*
X107622372Y-63604257D03*
X108022372Y-63604253D03*
D20*
X108567372Y-63059253D03*
X108567370Y-62659249D03*
X108567371Y-62259252D03*
X108567374Y-61859256D03*
X108567376Y-61459253D03*
X108567372Y-61059253D03*
%TD*%
D21*
%TO.C,J3*%
X101200000Y-96325000D03*
X101850000Y-96325000D03*
X102500000Y-96325000D03*
X103150000Y-96325000D03*
X103800000Y-96325000D03*
D22*
X99300000Y-96550000D03*
X105700000Y-96550000D03*
D23*
X103700000Y-99000000D03*
X101300000Y-99000000D03*
%TD*%
D13*
%TO.C,R5*%
X93500006Y-49944999D03*
X93499994Y-56055001D03*
%TD*%
D24*
%TO.C,U2*%
X111450000Y-85800002D03*
X112399997Y-85800000D03*
X113350002Y-85800000D03*
X113350000Y-83199998D03*
X111449998Y-83200000D03*
%TD*%
M02*
